<?xml version="1.0" ?><svg height="60px" version="1.1" viewBox="0 0 52 60" width="52px" xmlns="http://www.w3.org/2000/svg" xmlns:xlink="http://www.w3.org/1999/xlink"><title/><desc/><defs/><g fill="none" fill-rule="evenodd" id="People" stroke="none" stroke-width="1"><g fill="#000000" id="Icon-7" transform="translate(-4.000000, 0.000000)"><path d="M44,20.9844 C44,22.2864 43.162,23.3854 42,23.8004 L42,27.9844 C42,34.6014 36.617,39.9844 30,39.9844 C23.383,39.9844 18,34.6014 18,27.9844 L18,23.7994 C16.838,23.3854 16,22.2864 16,20.9844 C16,19.3304 17.346,17.9844 19,17.9844 C20.654,17.9844 22,19.3304 22,20.9844 C22,22.2864 21.162,23.3854 20,23.8004 L20,27.9844 C20,33.4984 24.486,37.9844 30,37.9844 C35.514,37.9844 40,33.4984 40,27.9844 L40,23.7994 C38.838,23.3854 38,22.2864 38,20.9844 C38,19.3304 39.346,17.9844 41,17.9844 C42.654,17.9844 44,19.3304 44,20.9844 M48.291,7.6894 L52.557,11.9844 L7.414,11.9844 L11.707,7.6914 C11.895,7.5044 12,7.2494 12,6.9844 C12,6.7184 11.894,6.4634 11.706,6.2764 L7.418,2.0004 L52.582,2.0004 L48.294,6.2764 C47.903,6.6654 47.902,7.2974 48.291,7.6894 M51,58.0004 L9,58.0004 C7.346,58.0004 6,56.6474 6,54.9844 L6,13.9844 L54,13.9844 L54,54.9844 C54,56.6474 52.654,58.0004 51,58.0004 M55,8.9844 C55.552,8.9844 56,8.5364 56,7.9844 L56,1.0004 C56,0.5954 55.757,0.2314 55.383,0.0764 C55.261,0.0254 55.132,0.0094 55.005,0.0094 C54.989,0.0084 54.975,0.0004 54.959,0.0004 L5,0.0004 C4.986,0.0004 4.975,0.0074 4.961,0.0074 C4.845,0.0124 4.729,0.0304 4.617,0.0764 C4.616,0.0764 4.615,0.0774 4.614,0.0784 C4.607,0.0814 4.602,0.0864 4.595,0.0894 C4.493,0.1344 4.404,0.1974 4.324,0.2714 C4.299,0.2954 4.279,0.3214 4.256,0.3464 C4.2,0.4114 4.153,0.4804 4.115,0.5564 C4.1,0.5884 4.083,0.6174 4.07,0.6504 C4.029,0.7614 4,0.8774 4,1.0004 L4,7.9844 C4,8.5364 4.448,8.9844 5,8.9844 C5.552,8.9844 6,8.5364 6,7.9844 L6,3.4094 L9.585,6.9854 L4.293,12.2764 C4.202,12.3684 4.128,12.4784 4.078,12.5994 C4.027,12.7204 4,12.8504 4,12.9844 L4,54.9844 C4,57.7504 6.243,60.0004 9,60.0004 L51,60.0004 C53.757,60.0004 56,57.7504 56,54.9844 L56,13.0264 C56,12.7614 55.896,12.5084 55.709,12.3214 L55.667,12.2784 L55.665,12.2764 L50.413,6.9874 L54,3.4094 L54,7.9844 C54,8.5364 54.448,8.9844 55,8.9844" id="bag"/></g></g></svg>